<svg xmlns="http://www.w3.org/2000/svg" viewBox="0 0 400 640" width="400" height="640" role="img" aria-label="Personagem de anime com cabelo branco de contorno preto, jaqueta preta, roupa preta, calça preta, cinto preto e botas pretas">
  <defs>
    <!-- Sombreamento do cabelo branco -->
    <linearGradient id="hairShade" x1="0" y1="0" x2="0" y2="1">
      <stop offset="0" stop-color="#ffffff"/>
      <stop offset="0.7" stop-color="#f2f2f2"/>
      <stop offset="1" stop-color="#d9d9d9"/>
    </linearGradient>
    <!-- Preto com leve brilho para as roupas -->
    <linearGradient id="clothShade" x1="0" y1="0" x2="1" y2="1">
      <stop offset="0" stop-color="#2a2a2a"/>
      <stop offset="0.5" stop-color="#141414"/>
      <stop offset="1" stop-color="#050505"/>
    </linearGradient>
    <linearGradient id="jacketShade" x1="0" y1="0" x2="1" y2="1">
      <stop offset="0" stop-color="#333333"/>
      <stop offset="0.55" stop-color="#181818"/>
      <stop offset="1" stop-color="#000000"/>
    </linearGradient>
    <linearGradient id="bootShade" x1="0" y1="0" x2="0" y2="1">
      <stop offset="0" stop-color="#2d2d2d"/>
      <stop offset="1" stop-color="#000000"/>
    </linearGradient>
    <!-- Pele castanha com sombreamento (realismo suave) -->
    <radialGradient id="skinFace" cx="0.42" cy="0.4" r="0.75">
      <stop offset="0" stop-color="#c68e63"/>
      <stop offset="0.6" stop-color="#b5794e"/>
      <stop offset="1" stop-color="#9c6238"/>
    </radialGradient>
    <linearGradient id="skinLimb" x1="0" y1="0" x2="1" y2="1">
      <stop offset="0" stop-color="#bd8256"/>
      <stop offset="1" stop-color="#9c6238"/>
    </linearGradient>
    <!-- Sombra suave para dar profundidade -->
    <radialGradient id="cheek" cx="0.5" cy="0.5" r="0.5">
      <stop offset="0" stop-color="#c9724f" stop-opacity="0.55"/>
      <stop offset="1" stop-color="#c9724f" stop-opacity="0"/>
    </radialGradient>
  </defs>

  <!-- ================= PERSONAGEM ================= -->
  <g stroke="#000000" stroke-width="3" stroke-linejoin="round" stroke-linecap="round">

    <!-- Pescoço -->
    <path d="M182 150 L182 178 Q200 190 218 178 L218 150 Z" fill="#9c6238"/>
    <!-- Sombra do queixo no pescoço -->
    <path d="M182 152 Q200 166 218 152 Q200 160 182 152 Z" fill="#7d4d2a" stroke="none" opacity="0.6"/>

    <!-- ===== Rosto ===== -->
    <path d="M158 96
             Q158 60 200 58
             Q242 60 242 96
             Q242 132 226 152
             Q214 166 200 168
             Q186 166 174 152
             Q158 132 158 96 Z" fill="url(#skinFace)"/>
    <!-- Bochechas suaves (realismo) -->
    <ellipse cx="176" cy="132" rx="12" ry="9" fill="url(#cheek)" stroke="none"/>
    <ellipse cx="224" cy="132" rx="12" ry="9" fill="url(#cheek)" stroke="none"/>
    <!-- Sombreamento lateral do rosto -->
    <path d="M226 100 Q234 124 220 150 Q230 124 224 102 Z" fill="#8a5530" stroke="none" opacity="0.4"/>

    <!-- Orelhas (tamanho médio/normal) -->
    <path d="M156 106 Q146 110 149 124 Q155 132 164 124 Z" fill="url(#skinLimb)"/>
    <path d="M244 106 Q254 110 251 124 Q245 132 236 124 Z" fill="url(#skinLimb)"/>

    <!-- Olhos (estilo anime) - heterocromia: vermelho e azul -->
    <g stroke-width="2">
      <path d="M170 112 Q180 104 192 112 L192 126 Q180 132 170 126 Z" fill="#ffffff"/>
      <path d="M208 112 Q220 104 230 112 L230 126 Q220 132 208 126 Z" fill="#ffffff"/>
      <!-- Olho vermelho (esquerdo) -->
      <ellipse cx="182" cy="119" rx="6" ry="8" fill="#d92626"/>
      <ellipse cx="182" cy="120" rx="3" ry="4.5" fill="#7a1010" stroke="none"/>
      <!-- Olho azul (direito) -->
      <ellipse cx="218" cy="119" rx="6" ry="8" fill="#2f6fd9"/>
      <ellipse cx="218" cy="120" rx="3" ry="4.5" fill="#123a7a" stroke="none"/>
      <!-- Brilhos -->
      <circle cx="184" cy="116" r="2" fill="#ffffff" stroke="none"/>
      <circle cx="220" cy="116" r="2" fill="#ffffff" stroke="none"/>
    </g>
    <!-- Sobrancelhas -->
    <path d="M170 104 Q180 100 192 104" fill="none" stroke-width="2.5"/>
    <path d="M208 104 Q220 100 230 104" fill="none" stroke-width="2.5"/>
    <!-- Nariz pequeno -->
    <path d="M199 130 Q197 134 200 135" fill="none" stroke-width="1.8"/>
    <!-- Boca fechada, humilde/suave -->
    <path d="M191 145 Q200 149 209 145" fill="none" stroke-width="2"/>

    <!-- ===== Cabelo branco com contorno preto ===== -->
    <path d="M150 108
             Q140 70 168 48
             Q182 38 200 40
             Q218 38 232 48
             Q260 70 250 108
             Q246 92 236 84
             Q240 100 232 112
             Q234 92 222 80
             Q226 70 210 66
             L216 86
             Q206 72 198 72
             Q190 74 194 90
             L182 70
             Q182 84 176 92
             Q172 76 162 74
             Q170 92 166 108
             Q158 92 150 108 Z"
          fill="url(#hairShade)"/>
    <!-- Mechas laterais -->
    <path d="M158 104 Q150 140 160 168 Q166 150 166 120 Z" fill="url(#hairShade)"/>
    <path d="M242 104 Q250 140 240 168 Q234 150 234 120 Z" fill="url(#hairShade)"/>

    <!-- ===== Jaqueta preta (aberta) ===== -->
    <!-- Torso / camiseta preta por baixo -->
    <path d="M175 180
             Q200 196 225 180
             L232 250
             Q200 262 168 250 Z" fill="url(#clothShade)"/>

    <!-- Ombros e corpo da jaqueta -->
    <path d="M172 176
             Q150 186 140 214
             L134 300
             Q134 330 150 356
             L168 356
             L166 250
             L175 182 Z" fill="url(#jacketShade)"/>
    <path d="M228 176
             Q250 186 260 214
             L266 300
             Q266 330 250 356
             L232 356
             L234 250
             L225 182 Z" fill="url(#jacketShade)"/>

    <!-- Gola da jaqueta -->
    <path d="M175 180 L200 210 L188 182 Q182 178 175 180 Z" fill="#000000"/>
    <path d="M225 180 L200 210 L212 182 Q218 178 225 180 Z" fill="#000000"/>

    <!-- Braços (mangas pretas) -->
    <path d="M140 214 Q126 250 132 300 L150 300 Q146 256 158 220 Z" fill="url(#jacketShade)"/>
    <path d="M260 214 Q274 250 268 300 L250 300 Q254 256 242 220 Z" fill="url(#jacketShade)"/>
    <!-- Mãos -->
    <ellipse cx="140" cy="312" rx="12" ry="15" fill="url(#skinLimb)"/>
    <ellipse cx="260" cy="312" rx="12" ry="15" fill="url(#skinLimb)"/>

    <!-- ===== Cinto preto ===== -->
    <rect x="163" y="356" width="74" height="18" rx="3" fill="#0a0a0a"/>
    <rect x="192" y="358" width="16" height="14" rx="2" fill="#2b2b2b" stroke-width="2"/>

    <!-- ===== Calça preta ===== -->
    <path d="M165 374
             L160 520
             L192 520
             L200 400
             L208 520
             L240 520
             L235 374
             Q200 388 165 374 Z" fill="url(#clothShade)"/>
    <!-- Vinco central -->
    <path d="M200 380 L200 512" fill="none" stroke-width="1.5" opacity="0.5"/>

    <!-- ===== Botas pretas ===== -->
    <path d="M158 518 L162 560 Q162 580 152 584 L188 584 Q194 580 192 560 L194 518 Z" fill="url(#bootShade)"/>
    <path d="M206 518 L208 560 Q206 580 212 584 L248 584 Q238 580 238 560 L242 518 Z" fill="url(#bootShade)"/>
    <!-- Solado -->
    <rect x="148" y="582" width="48" height="10" rx="3" fill="#000000"/>
    <rect x="204" y="582" width="48" height="10" rx="3" fill="#000000"/>
    <!-- Detalhe dos cadarços -->
    <g stroke="#3a3a3a" stroke-width="2">
      <path d="M168 528 L184 532"/>
      <path d="M168 540 L184 544"/>
      <path d="M216 528 L232 532"/>
      <path d="M216 540 L232 544"/>
    </g>
  </g>
</svg>
